<svg width="512" height="512" viewBox="0 0 512 512" fill="none" xmlns="http://www.w3.org/2000/svg">
<g clip-path="url(#clip0_208_2)">
<rect width="512" height="512" fill="#1B2125"/>
<path d="M251.259 271.034L196.367 134.758C194.461 130.311 192.619 124.975 190.84 118.748C190.077 121.798 189.252 124.72 188.362 127.516C187.473 130.184 186.52 132.662 185.503 134.949L130.612 271.034H251.259ZM310.915 369H295.858C294.079 369 292.618 368.555 291.474 367.666C290.331 366.649 289.441 365.379 288.806 363.854L257.167 285.519H124.703L93.0645 363.854C92.5563 365.252 91.6668 366.459 90.3962 367.475C89.1256 368.492 87.6008 369 85.8219 369H70.9555L181.31 99.3078H200.56L310.915 369Z" fill="white"/>
<path d="M419.131 269.368C419.131 255.934 417.2 243.927 413.338 233.348C409.643 222.601 404.353 213.532 397.468 206.144C390.583 198.755 382.355 193.129 372.783 189.267C363.379 185.237 352.967 183.221 341.548 183.221C328.618 183.221 317.031 185.237 306.787 189.267C296.544 193.297 287.643 199.091 280.087 206.647C272.698 214.204 266.736 223.272 262.202 233.852C257.668 244.431 254.645 256.27 253.134 269.368H419.131ZM251.875 284.734V289.52C251.875 308.328 254.058 324.869 258.424 339.143C262.79 353.417 269.003 365.423 277.064 375.163C285.124 384.735 294.864 391.956 306.283 396.826C317.702 401.696 330.465 404.131 344.571 404.131C357.166 404.131 368.081 402.787 377.317 400.101C386.553 397.246 394.278 394.139 400.491 390.781C406.872 387.254 411.91 384.147 415.605 381.46C419.299 378.606 421.986 377.178 423.665 377.178C425.848 377.178 427.527 378.018 428.703 379.697L435.252 387.758C431.222 392.796 425.848 397.498 419.131 401.864C412.582 406.23 405.193 410.008 396.965 413.199C388.904 416.222 380.172 418.657 370.768 420.504C361.532 422.351 352.212 423.275 342.808 423.275C325.679 423.275 310.062 420.336 295.956 414.458C281.85 408.413 269.759 399.681 259.683 388.262C249.608 376.842 241.799 362.904 236.257 346.447C230.884 329.823 228.197 310.847 228.197 289.52C228.197 271.552 230.716 255.011 235.754 239.897C240.959 224.616 248.348 211.517 257.92 200.602C267.66 189.519 279.499 180.87 293.437 174.657C307.543 168.444 323.496 165.337 341.296 165.337C355.402 165.337 368.501 167.772 380.592 172.642C392.682 177.512 403.178 184.649 412.078 194.053C420.978 203.289 427.947 214.708 432.985 228.31C438.191 241.912 440.794 257.53 440.794 275.162C440.794 278.856 440.29 281.375 439.282 282.719C438.275 284.062 436.596 284.734 434.245 284.734H251.875Z" fill="white"/>
</g>
<defs>
<clipPath id="clip0_208_2">
<rect width="512" height="512" fill="white"/>
</clipPath>
</defs>
</svg>
