<svg width="25" height="30" viewBox="0 0 25 30" fill="none" xmlns="http://www.w3.org/2000/svg">
<path d="M17.7364 11.2262H11.0636V0H17.7364C21.3375 0 24.2667 2.5175 24.2667 5.6125C24.2667 8.7075 21.3375 11.2262 17.7364 11.2262ZM13.203 9.3875H17.7364C20.158 9.3875 22.1272 7.69375 22.1272 5.61375C22.1272 3.53375 20.1565 1.84 17.7364 1.84H13.203V9.3875ZM13.203 11.2262H6.53171C2.93062 11.2262 0.00145429 8.70875 0.00145429 5.61375C0.00145429 2.51875 2.93062 0 6.53171 0H13.2045V11.2262H13.203ZM6.53171 1.83875C4.11013 1.83875 2.14088 3.5325 2.14088 5.6125C2.14088 7.6925 4.11013 9.3875 6.53171 9.3875H11.0651V1.83875H6.53171ZM13.203 20.6125H6.53171C2.93062 20.6125 0.00145429 18.095 0.00145429 15C0.00145429 11.905 2.93062 9.3875 6.53171 9.3875H13.2045V20.6125H13.203ZM6.53171 11.2262C4.11013 11.2262 2.14088 12.92 2.14088 15C2.14088 17.08 4.11159 18.7738 6.53171 18.7738H11.0651V11.2262H6.53171ZM6.56662 30C2.94661 30 0 27.4825 0 24.3875C0 21.2925 2.92916 18.775 6.53026 18.775H13.203V24.3263C13.203 27.455 10.2259 30 6.56662 30ZM6.53171 20.6125C5.36766 20.6138 4.25173 21.0118 3.42862 21.7193C2.60551 22.4267 2.14242 23.3858 2.14088 24.3863C2.14088 26.4675 4.12613 28.16 6.56807 28.16C9.04782 28.16 11.0665 26.44 11.0665 24.325V20.6125H6.53171ZM17.7364 20.6125H17.5939C13.9928 20.6125 11.0636 18.095 11.0636 15C11.0636 11.905 13.9928 9.3875 17.5939 9.3875H17.7364C21.3375 9.3875 24.2667 11.905 24.2667 15C24.2667 18.095 21.3375 20.6125 17.7364 20.6125ZM17.5953 11.2262C15.1738 11.2262 13.2045 12.92 13.2045 15C13.2045 17.08 15.1752 18.7738 17.5953 18.7738H17.7379C20.1594 18.7738 22.1287 17.08 22.1287 15C22.1287 12.92 20.158 11.2262 17.7379 11.2262H17.5953Z" fill="white"/>
</svg>
