<svg width="45" height="45" viewBox="0 0 45 45" fill="none" xmlns="http://www.w3.org/2000/svg">
<path d="M22.5 0C16.3941 0 15.6263 0.028125 13.2272 0.135C10.8281 0.2475 9.19406 0.624375 7.7625 1.18125C6.26089 1.74605 4.90076 2.63201 3.77719 3.77719C2.63271 4.90133 1.74686 6.2613 1.18125 7.7625C0.624375 9.19125 0.244687 10.8281 0.135 13.2187C0.028125 15.6234 0 16.3884 0 22.5028C0 28.6116 0.028125 29.3766 0.135 31.7756C0.2475 34.1719 0.624375 35.8059 1.18125 37.2375C1.75781 38.7169 2.52563 39.9712 3.77719 41.2228C5.02594 42.4744 6.28031 43.245 7.75969 43.8187C9.19406 44.3756 10.8253 44.7553 13.2216 44.865C15.6234 44.9719 16.3884 45 22.5 45C28.6116 45 29.3738 44.9719 31.7756 44.865C34.1691 44.7525 35.8088 44.3756 37.2403 43.8187C38.741 43.2537 40.1001 42.3677 41.2228 41.2228C42.4744 39.9712 43.2422 38.7169 43.8187 37.2375C44.3728 35.8059 44.7525 34.1719 44.865 31.7756C44.9719 29.3766 45 28.6116 45 22.5C45 16.3884 44.9719 15.6234 44.865 13.2216C44.7525 10.8281 44.3728 9.19125 43.8187 7.7625C43.2532 6.26126 42.3674 4.90128 41.2228 3.77719C40.0996 2.63159 38.7394 1.74557 37.2375 1.18125C35.8031 0.624375 34.1662 0.244687 31.7728 0.135C29.3709 0.028125 28.6088 0 22.4944 0H22.5028H22.5ZM20.4834 4.05562H22.5028C28.5103 4.05562 29.2219 4.07531 31.5928 4.185C33.7866 4.28344 34.9791 4.65188 35.7722 4.95844C36.8213 5.36625 37.5722 5.85563 38.3597 6.64313C39.1472 7.43062 39.6338 8.17875 40.0416 9.23063C40.3509 10.0209 40.7166 11.2134 40.815 13.4072C40.9247 15.7781 40.9472 16.4897 40.9472 22.4944C40.9472 28.4991 40.9247 29.2134 40.815 31.5844C40.7166 33.7781 40.3481 34.9678 40.0416 35.7609C39.6808 36.7379 39.1051 37.6212 38.3569 38.3456C37.5694 39.1331 36.8213 39.6197 35.7694 40.0275C34.9819 40.3369 33.7894 40.7025 31.5928 40.8038C29.2219 40.9106 28.5103 40.9359 22.5028 40.9359C16.4953 40.9359 15.7809 40.9106 13.41 40.8038C11.2163 40.7025 10.0266 40.3369 9.23344 40.0275C8.25609 39.6673 7.37192 39.0926 6.64594 38.3456C5.89711 37.6201 5.32047 36.7359 4.95844 35.7581C4.65188 34.9678 4.28344 33.7753 4.185 31.5816C4.07812 29.2106 4.05562 28.4991 4.05562 22.4887C4.05562 16.4812 4.07812 15.7725 4.185 13.4016C4.28625 11.2078 4.65188 10.0153 4.96125 9.22219C5.36906 8.17313 5.85844 7.42219 6.64594 6.63469C7.43344 5.84719 8.18156 5.36063 9.23344 4.95281C10.0266 4.64344 11.2163 4.27781 13.41 4.17656C15.4856 4.08094 16.29 4.05281 20.4834 4.05V4.05562ZM34.5122 7.79063C34.1576 7.79063 33.8065 7.86046 33.4789 7.99615C33.1514 8.13184 32.8537 8.33072 32.603 8.58144C32.3523 8.83216 32.1534 9.1298 32.0177 9.45738C31.882 9.78496 31.8122 10.1361 31.8122 10.4906C31.8122 10.8452 31.882 11.1963 32.0177 11.5239C32.1534 11.8514 32.3523 12.1491 32.603 12.3998C32.8537 12.6505 33.1514 12.8494 33.4789 12.9851C33.8065 13.1208 34.1576 13.1906 34.5122 13.1906C35.2283 13.1906 35.915 12.9062 36.4214 12.3998C36.9277 11.8935 37.2122 11.2067 37.2122 10.4906C37.2122 9.77454 36.9277 9.08778 36.4214 8.58144C35.915 8.07509 35.2283 7.79063 34.5122 7.79063ZM22.5028 10.9462C20.9702 10.9223 19.4481 11.2036 18.0253 11.7735C16.6024 12.3435 15.3071 13.1908 14.2148 14.2662C13.1225 15.3416 12.2551 16.6235 11.663 18.0373C11.0709 19.4511 10.766 20.9686 10.766 22.5014C10.766 24.0342 11.0709 25.5517 11.663 26.9655C12.2551 28.3793 13.1225 29.6613 14.2148 30.7366C15.3071 31.812 16.6024 32.6593 18.0253 33.2293C19.4481 33.7993 20.9702 34.0805 22.5028 34.0566C25.5362 34.0092 28.4293 32.771 30.5577 30.6091C32.6861 28.4473 33.8791 25.5352 33.8791 22.5014C33.8791 19.4676 32.6861 16.5555 30.5577 14.3937C28.4293 12.2318 25.5362 10.9936 22.5028 10.9462ZM22.5028 14.9991C24.4922 14.9991 26.4001 15.7893 27.8068 17.196C29.2135 18.6027 30.0037 20.5106 30.0037 22.5C30.0037 24.4894 29.2135 26.3973 27.8068 27.804C26.4001 29.2107 24.4922 30.0009 22.5028 30.0009C20.5134 30.0009 18.6055 29.2107 17.1988 27.804C15.7921 26.3973 15.0019 24.4894 15.0019 22.5C15.0019 20.5106 15.7921 18.6027 17.1988 17.196C18.6055 15.7893 20.5134 14.9991 22.5028 14.9991Z" fill="white"/>
</svg>
