<svg width="30" height="30" viewBox="0 0 30 30" fill="none" xmlns="http://www.w3.org/2000/svg">
<path d="M0 6.42857C0 4.72361 0.677294 3.08848 1.88289 1.88289C3.08848 0.677294 4.72361 0 6.42857 0H23.5714C25.2764 0 26.9115 0.677294 28.1171 1.88289C29.3227 3.08848 30 4.72361 30 6.42857V23.5714C30 25.2764 29.3227 26.9115 28.1171 28.1171C26.9115 29.3227 25.2764 30 23.5714 30H6.42857C4.72361 30 3.08848 29.3227 1.88289 28.1171C0.677294 26.9115 0 25.2764 0 23.5714V6.42857ZM15.5357 9.64286C15.1095 9.64286 14.7007 9.81218 14.3993 10.1136C14.0979 10.415 13.9286 10.8238 13.9286 11.25V21.9643C13.9286 22.1064 13.8721 22.2426 13.7717 22.3431C13.6712 22.4436 13.5349 22.5 13.3929 22.5H11.25C10.8238 22.5 10.415 22.6693 10.1136 22.9707C9.81218 23.2721 9.64286 23.6809 9.64286 24.1071C9.64286 24.5334 9.81218 24.9422 10.1136 25.2436C10.415 25.545 10.8238 25.7143 11.25 25.7143H13.3929C14.3874 25.7143 15.3412 25.3192 16.0445 24.6159C16.7478 23.9127 17.1429 22.9588 17.1429 21.9643V11.25C17.1429 10.8238 16.9735 10.415 16.6721 10.1136C16.3707 9.81218 15.962 9.64286 15.5357 9.64286ZM18.2143 13.3929V15.5357C18.2143 17.6057 19.8943 19.2857 21.9643 19.2857H23.0357C23.1778 19.2857 23.3141 19.3422 23.4145 19.4426C23.515 19.5431 23.5714 19.6793 23.5714 19.8214V21.9643C23.5714 22.1064 23.515 22.2426 23.4145 22.3431C23.3141 22.4436 23.1778 22.5 23.0357 22.5H19.8214C19.3952 22.5 18.9864 22.6693 18.685 22.9707C18.3836 23.2721 18.2143 23.6809 18.2143 24.1071C18.2143 24.5334 18.3836 24.9422 18.685 25.2436C18.9864 25.545 19.3952 25.7143 19.8214 25.7143H23.0357C24.0303 25.7143 24.9841 25.3192 25.6874 24.6159C26.3906 23.9127 26.7857 22.9588 26.7857 21.9643V19.8214C26.7857 18.8269 26.3906 17.873 25.6874 17.1698C24.9841 16.4665 24.0303 16.0714 23.0357 16.0714H21.9643C21.8222 16.0714 21.6859 16.015 21.5855 15.9145C21.485 15.8141 21.4286 15.6778 21.4286 15.5357V13.3929C21.4286 13.2508 21.485 13.1145 21.5855 13.014C21.6859 12.9136 21.8222 12.8571 21.9643 12.8571H25.1786C25.6048 12.8571 26.0136 12.6878 26.315 12.3864C26.6164 12.085 26.7857 11.6762 26.7857 11.25C26.7857 10.8238 26.6164 10.415 26.315 10.1136C26.0136 9.81218 25.6048 9.64286 25.1786 9.64286H21.9643C20.9697 9.64286 20.0159 10.0379 19.3126 10.7412C18.6094 11.4445 18.2143 12.3983 18.2143 13.3929Z" fill="white"/>
</svg>
