<svg width="45" height="45" viewBox="0 0 45 45" fill="none" xmlns="http://www.w3.org/2000/svg">
<path d="M0 3.22312C0 1.44281 1.47937 0 3.30469 0H41.6953C43.5206 0 45 1.44281 45 3.22312V41.7769C45 43.5572 43.5206 45 41.6953 45H3.30469C1.47937 45 0 43.5572 0 41.7769V3.22312ZM13.9022 37.6706V17.3503H7.14937V37.6706H13.9022ZM10.5272 14.5744C12.8813 14.5744 14.3466 13.0162 14.3466 11.0644C14.3044 9.07031 12.8841 7.55438 10.5722 7.55438C8.26031 7.55438 6.75 9.07312 6.75 11.0644C6.75 13.0162 8.21531 14.5744 10.4822 14.5744H10.5272ZM24.3309 37.6706V26.3222C24.3309 25.7147 24.3759 25.1072 24.5559 24.6741C25.0425 23.4619 26.1534 22.2047 28.0209 22.2047C30.465 22.2047 31.4409 24.0666 31.4409 26.8003V37.6706H38.1937V26.0156C38.1937 19.7719 34.8638 16.8694 30.42 16.8694C26.8369 16.8694 25.2309 18.8381 24.3309 20.2247V20.295H24.2859C24.3009 20.2715 24.3159 20.2481 24.3309 20.2247V17.3503H17.5809C17.6653 19.2572 17.5809 37.6706 17.5809 37.6706H24.3309Z" fill="white"/>
</svg>
