<svg width="45" height="34" viewBox="0 0 45 34" fill="none" xmlns="http://www.w3.org/2000/svg">
<path d="M0 5.625C0 4.13316 0.592632 2.70242 1.64752 1.64752C2.70242 0.592632 4.13316 0 5.625 0H39.375C40.8668 0 42.2976 0.592632 43.3525 1.64752C44.4074 2.70242 45 4.13316 45 5.625V28.125C45 29.6168 44.4074 31.0476 43.3525 32.1025C42.2976 33.1574 40.8668 33.75 39.375 33.75H5.625C4.13316 33.75 2.70242 33.1574 1.64752 32.1025C0.592632 31.0476 0 29.6168 0 28.125V5.625ZM5.625 2.8125C4.87908 2.8125 4.16371 3.10882 3.63626 3.63626C3.10882 4.16371 2.8125 4.87908 2.8125 5.625V6.23531L22.5 18.0478L42.1875 6.23531V5.625C42.1875 4.87908 41.8912 4.16371 41.3637 3.63626C40.8363 3.10882 40.1209 2.8125 39.375 2.8125H5.625ZM42.1875 9.51469L28.8056 17.5444L42.1875 25.6331V9.5175V9.51469ZM42.0919 28.8591L26.0747 19.1812L22.5 21.3272L18.9225 19.1812L2.90813 28.8563C3.06899 29.4537 3.42239 29.9814 3.91356 30.3577C4.40473 30.7339 5.00627 30.9377 5.625 30.9375H39.375C39.9934 30.9379 40.5946 30.7345 41.0857 30.3588C41.5769 29.9831 41.9305 29.456 42.0919 28.8591ZM2.8125 25.6331L16.1944 17.5444L2.8125 9.51469V25.6303V25.6331Z" fill="white"/>
</svg>
