<svg width="30" height="30" viewBox="0 0 30 30" fill="none" xmlns="http://www.w3.org/2000/svg">
<path d="M12.3125 10.4107C11.85 10.2184 11.35 10.1415 10.8375 10.1543C10.5125 10.1543 10.225 10.1543 9.9875 10.1671C9.7375 10.1543 9.5625 10.1671 9.475 10.1799V14.4878C9.65 14.5006 9.8125 14.5134 9.9625 14.5134H10.625C11.1125 14.5134 11.6 14.4365 12.0625 14.2827C12.4625 14.1673 12.8125 13.9237 13.0875 13.6031C13.35 13.2826 13.475 12.8467 13.475 12.2826C13.4875 11.8851 13.3875 11.4877 13.1875 11.1415C12.9791 10.8086 12.6726 10.5526 12.3125 10.4107ZM24.6875 0H5.3125C2.375 0 0 2.436 0 5.44895V24.551C0 27.564 2.375 30 5.3125 30H24.6875C27.625 30 30 27.564 30 24.551V5.44895C30 2.436 27.625 0 24.6875 0ZM15.4488 14.9365C14.95 15.6545 14.25 16.193 13.4375 16.5007C12.5875 16.8212 11.65 16.9366 10.625 16.9366C10.325 16.9366 10.125 16.9366 10 16.9238C9.875 16.911 9.7 16.911 9.4625 16.911V21.0253C9.475 21.115 9.4125 21.1932 9.325 21.206H6.9C6.8 21.206 6.75 21.1535 6.75 21.0381V7.84649C6.75 7.75674 6.7875 7.70546 6.875 7.70546C7.0875 7.70546 7.2875 7.70546 7.575 7.69264C7.875 7.67982 8.1875 7.67982 8.525 7.66699C8.8625 7.65417 9.225 7.65417 9.6125 7.64135C10 7.62853 10.375 7.62853 10.75 7.62853C11.775 7.62853 12.625 7.75674 13.325 8.02598C13.95 8.24394 14.525 8.60293 15 9.07731C15.4 9.48759 15.7125 9.98761 15.9125 10.5389C16.0987 11.0774 16.1987 11.6287 16.1987 12.2056C16.2 13.3083 15.95 14.2186 15.4488 14.9365ZM24.3125 19.9239C23.9625 20.4368 23.4737 20.8329 22.9125 21.0663C22.3 21.3342 21.55 21.474 20.6487 21.474C20.075 21.474 19.5112 21.424 18.95 21.3086C18.5125 21.2304 18.075 21.0906 17.675 20.8983C17.5875 20.8483 17.5238 20.7586 17.5363 20.656V18.4251C17.5363 18.388 17.55 18.3354 17.5875 18.3098C17.6237 18.2841 17.6625 18.2969 17.7 18.3226C18.1875 18.6175 18.7 18.8239 19.25 18.9508C19.7237 19.079 20.2237 19.1431 20.725 19.1431C21.2 19.1431 21.5375 19.0777 21.7625 18.9623C21.9625 18.8726 22.1 18.6546 22.1 18.4239C22.1 18.2431 22 18.0777 21.8 17.911C21.6 17.7456 21.1888 17.5533 20.5763 17.3071C19.9388 17.0764 19.3525 16.7687 18.8013 16.3853C18.4101 16.098 18.0854 15.7259 17.85 15.2955C17.6513 14.8899 17.553 14.4403 17.5637 13.9865C17.5637 13.4352 17.7138 12.9095 17.99 12.4351C18.3025 11.9223 18.7638 11.512 19.3013 11.2556C19.8875 10.9492 20.625 10.8082 21.5125 10.8082C22.025 10.8082 22.55 10.8466 23.0625 10.9235C23.4375 10.9748 23.8 11.0774 24.1375 11.2184C24.1862 11.2312 24.2375 11.2825 24.2625 11.3338C24.275 11.3851 24.2875 11.4364 24.2875 11.4877V13.5775C24.2875 13.6288 24.2625 13.6801 24.225 13.7057C24.1125 13.7314 24.05 13.7314 24 13.7057C23.625 13.5006 23.225 13.3595 22.8 13.2698C22.3375 13.1672 21.875 13.1031 21.4 13.1031C21.15 13.0903 20.8875 13.1288 20.6487 13.1929C20.4875 13.2313 20.3487 13.3211 20.2612 13.4493C20.1987 13.5519 20.1612 13.6801 20.1612 13.7955C20.1612 13.9109 20.2113 14.0262 20.2875 14.1288C20.4 14.2698 20.5487 14.3852 20.7125 14.475C20.9987 14.6288 21.3 14.7699 21.5987 14.8981C22.275 15.1289 22.925 15.4494 23.525 15.834C23.9375 16.102 24.275 16.4622 24.5112 16.8982C24.7112 17.3059 24.8113 17.7572 24.7988 18.2174C24.8125 18.8213 24.6375 19.4226 24.3125 19.9239Z" fill="white"/>
</svg>
