<svg width="30" height="30" viewBox="0 0 31 31" fill="none" xmlns="http://www.w3.org/2000/svg">
<path d="M15.6961 18.5218C17.1569 18.5218 18.341 17.3376 18.341 15.8769C18.341 14.4162 17.1569 13.232 15.6961 13.232C14.2354 13.232 13.0513 14.4162 13.0513 15.8769C13.0513 17.3376 14.2354 18.5218 15.6961 18.5218Z" fill="white"/>
<path d="M15.6963 21.2956C23.5343 21.2956 29.8882 18.8696 29.8882 15.8769C29.8882 12.8842 23.5343 10.4581 15.6963 10.4581C7.85824 10.4581 1.50427 12.8842 1.50427 15.8769C1.50427 18.8696 7.85824 21.2956 15.6963 21.2956Z" stroke="white" stroke-width="2"/>
<path d="M11.0035 18.5863C14.9225 25.3742 20.2005 29.6639 22.7923 28.1675C25.384 26.6712 24.3081 19.9554 20.3891 13.1675C16.4701 6.37959 11.1921 2.08992 8.60031 3.58627C6.00856 5.08262 7.08451 11.7983 11.0035 18.5863Z" stroke="white" stroke-width="2"/>
<path d="M11.0034 13.1675C7.08442 19.9554 6.00846 26.6712 8.60022 28.1675C11.192 29.6639 16.47 25.3742 20.389 18.5863C24.308 11.7984 25.384 5.08262 22.7922 3.58628C20.2004 2.08993 14.9224 6.37959 11.0034 13.1675Z" stroke="white" stroke-width="2"/>
</svg>
