<svg width="35" height="30" viewBox="0 0 35 30" fill="none" xmlns="http://www.w3.org/2000/svg">
<path d="M6.27022 5.0689e-08H1.15417C0.951146 -6.01188e-05 0.751704 0.0534482 0.575979 0.155122C0.400253 0.256796 0.254466 0.403036 0.153337 0.579076C0.0522076 0.755115 -0.000682538 0.954722 6.65015e-06 1.15774C0.000695838 1.36076 0.05494 1.56 0.157262 1.73535L16.3108 29.4271C16.4124 29.6014 16.5579 29.7461 16.7328 29.8466C16.9077 29.9471 17.1059 30 17.3077 30C17.5094 30 17.7077 29.9471 17.8826 29.8466C18.0575 29.7461 18.203 29.6014 18.3046 29.4271L34.4581 1.73535C34.5605 1.56 34.6147 1.36076 34.6154 1.15774C34.6161 0.954722 34.5632 0.755115 34.4621 0.579076C34.3609 0.403036 34.2151 0.256796 34.0394 0.155122C33.8637 0.0534482 33.6642 -6.01188e-05 33.4612 5.0689e-08H28.3452L17.3077 18.3966L6.27022 5.0689e-08Z" fill="white"/>
<path d="M25.6545 0H18.9L17.3077 3.18917L15.7131 0H8.96094L17.3077 13.9105L25.6545 0Z" fill="white"/>
</svg>
